<svg width="1251" height="875" viewBox="0 0 1251 875" fill="none" xmlns="http://www.w3.org/2000/svg">
<g opacity="0.2">
<path d="M234.951 874.349H984.393C1018.89 874.349 1046.85 846.388 1046.85 811.896V62.4535C1046.85 27.9614 1018.89 0 984.393 0H234.951C200.459 0 172.497 27.9614 172.497 62.4535V811.896C172.497 846.388 200.459 874.349 234.951 874.349Z" fill="#0F1117"/>
<g filter="url(#filter0_d_1_2048)">
<path d="M339.725 813.145H1182.27C1199.5 813.145 1213.47 799.164 1213.47 781.918V625.784C1213.47 608.538 1199.5 594.558 1182.27 594.558H339.725C322.491 594.558 308.52 608.538 308.52 625.784V781.918C308.52 799.164 322.491 813.145 339.725 813.145Z" fill="#212734"/>
</g>
<path d="M782.839 763.182H945.106C955.446 763.182 963.829 754.794 963.829 744.446C963.829 734.098 955.446 725.71 945.106 725.71H782.839C772.498 725.71 764.116 734.098 764.116 744.446C764.116 754.794 772.498 763.182 782.839 763.182Z" fill="url(#paint0_linear_1_2048)" fill-opacity="0.7"/>
<path d="M670.5 681.993H945.106C955.446 681.993 963.829 673.604 963.829 663.257C963.829 652.909 955.446 644.52 945.106 644.52H670.5C660.159 644.52 651.777 652.909 651.777 663.257C651.777 673.604 660.159 681.993 670.5 681.993Z" fill="#3F4354"/>
<path d="M1040.6 793.16H1159.26C1176.51 793.16 1190.49 779.179 1190.49 761.933V643.271C1190.49 626.025 1176.51 612.045 1159.26 612.045H1040.6C1023.35 612.045 1009.37 626.025 1009.37 643.271V761.933C1009.37 779.179 1023.35 793.16 1040.6 793.16Z" fill="url(#paint1_linear_1_2048)"/>
<path d="M1114.16 682.117H1101.67L1101.53 686.926C1101.53 693.247 1097.54 694.895 1091.91 696.682C1086.26 698.289 1081.29 701.693 1077.74 706.378C1074.2 711.063 1072.27 716.775 1072.26 722.65C1072.14 726.237 1072.76 729.81 1074.09 733.144C1075.42 736.479 1077.42 739.5 1079.98 742.019C1082.54 744.537 1085.59 746.498 1088.95 747.775C1092.3 749.053 1095.88 749.621 1099.47 749.442C1103.26 749.525 1107.02 748.837 1110.54 747.421C1114.05 746.004 1117.24 743.889 1119.91 741.202C1122.58 738.516 1124.68 735.315 1126.08 731.793C1127.48 728.271 1128.15 724.502 1128.05 720.714H1115.13C1115.18 722.805 1114.81 724.885 1114.04 726.832C1113.28 728.779 1112.13 730.554 1110.67 732.052C1109.21 733.551 1107.47 734.743 1105.54 735.558C1103.62 736.374 1101.55 736.797 1099.45 736.802C1097.57 736.911 1095.68 736.613 1093.92 735.928C1092.16 735.243 1090.56 734.186 1089.25 732.831C1087.93 731.475 1086.92 729.852 1086.29 728.071C1085.66 726.291 1085.41 724.395 1085.58 722.512C1085.66 719.465 1086.72 716.526 1088.6 714.126C1090.48 711.727 1093.08 709.995 1096.02 709.185L1100.55 707.386C1104.99 706.317 1108.87 703.619 1111.41 699.827C1113.96 696.036 1114.99 691.427 1114.29 686.914L1114.16 682.117ZM1107.97 652.427C1106.75 652.384 1105.53 652.586 1104.39 653.022C1103.24 653.458 1102.2 654.118 1101.31 654.965C1100.43 655.812 1099.73 656.827 1099.24 657.951C1098.76 659.074 1098.5 660.284 1098.49 661.508C1098.5 662.731 1098.76 663.939 1099.24 665.061C1099.73 666.183 1100.44 667.197 1101.32 668.042C1102.2 668.888 1103.25 669.547 1104.39 669.982C1105.53 670.418 1106.75 670.619 1107.97 670.576C1109.19 670.619 1110.41 670.418 1111.56 669.982C1112.7 669.547 1113.74 668.888 1114.63 668.042C1115.51 667.197 1116.22 666.183 1116.7 665.061C1117.19 663.939 1117.44 662.731 1117.45 661.508C1117.44 660.284 1117.19 659.074 1116.7 657.951C1116.22 656.827 1115.51 655.812 1114.63 654.965C1113.75 654.118 1112.7 653.458 1111.56 653.022C1110.42 652.586 1109.2 652.384 1107.97 652.427Z" fill="#212734"/>
<g filter="url(#filter1_d_1_2048)">
<path d="M68.6769 546.468H911.218C919.494 546.468 927.431 543.178 933.284 537.322C939.136 531.466 942.423 523.523 942.423 515.242V359.108C942.423 350.826 939.136 342.883 933.284 337.027C927.431 331.171 919.494 327.881 911.218 327.881H68.6769C60.4008 327.881 52.4636 331.171 46.6115 337.027C40.7594 342.883 37.4717 350.826 37.4717 359.108V515.242C37.4717 523.523 40.7594 531.466 46.6115 537.322C52.4636 543.178 60.4008 546.468 68.6769 546.468V546.468Z" fill="#212734"/>
</g>
<path d="M468.105 496.506H305.837C295.497 496.506 287.114 488.118 287.114 477.77C287.114 467.422 295.497 459.034 305.837 459.034H468.105C478.445 459.034 486.828 467.422 486.828 477.77C486.828 488.118 478.445 496.506 468.105 496.506Z" fill="url(#paint2_linear_1_2048)" fill-opacity="0.7"/>
<path d="M580.443 415.316H305.837C295.497 415.316 287.114 406.928 287.114 396.58C287.114 386.232 295.497 377.844 305.837 377.844H580.443C590.784 377.844 599.167 386.232 599.167 396.58C599.167 406.928 590.784 415.316 580.443 415.316Z" fill="#3F4354"/>
<path d="M87.3995 527.732H205.979C223.214 527.732 237.185 513.752 237.185 496.506V377.844C237.185 360.598 223.214 346.617 205.979 346.617H87.3995C70.1653 346.617 56.1942 360.598 56.1942 377.844V496.506C56.1942 513.752 70.1653 527.732 87.3995 527.732Z" fill="url(#paint3_linear_1_2048)"/>
<path d="M160.908 416.69H148.425L148.288 421.499C148.288 427.819 144.306 429.468 138.677 431.254C133.03 432.862 128.06 436.265 124.517 440.95C120.975 445.635 119.053 451.347 119.043 457.222C118.919 460.809 119.541 464.383 120.869 467.717C122.197 471.051 124.202 474.073 126.757 476.591C129.313 479.11 132.363 481.07 135.714 482.348C139.066 483.626 142.646 484.193 146.229 484.015C150.014 484.097 153.777 483.41 157.29 481.993C160.802 480.577 163.99 478.461 166.66 475.775C169.331 473.088 171.428 469.887 172.825 466.365C174.222 462.843 174.89 459.074 174.788 455.286H161.881C161.93 457.378 161.562 459.458 160.797 461.405C160.032 463.352 158.887 465.127 157.428 466.625C155.969 468.123 154.226 469.315 152.3 470.131C150.375 470.946 148.307 471.369 146.216 471.374C144.331 471.484 142.444 471.186 140.684 470.5C138.924 469.815 137.332 468.759 136.017 467.403C134.701 466.047 133.693 464.424 133.06 462.644C132.427 460.863 132.184 458.967 132.349 457.085C132.432 454.038 133.491 451.098 135.369 448.699C137.248 446.299 139.847 444.567 142.784 443.757L147.315 441.959C151.751 440.889 155.624 438.191 158.166 434.4C160.709 430.609 161.737 426 161.045 421.486L160.908 416.69ZM154.729 387C153.507 386.956 152.288 387.158 151.145 387.594C150.002 388.03 148.959 388.691 148.075 389.538C147.192 390.384 146.487 391.399 146.003 392.523C145.519 393.647 145.264 394.856 145.255 396.08C145.266 397.303 145.521 398.511 146.007 399.634C146.492 400.756 147.197 401.77 148.08 402.615C148.963 403.46 150.006 404.12 151.148 404.555C152.29 404.99 153.508 405.192 154.729 405.149C155.95 405.192 157.168 404.99 158.31 404.555C159.452 404.12 160.495 403.46 161.378 402.615C162.261 401.77 162.966 400.756 163.451 399.634C163.936 398.511 164.192 397.303 164.203 396.08C164.194 394.856 163.939 393.647 163.455 392.523C162.97 391.399 162.266 390.384 161.383 389.538C160.499 388.691 159.455 388.03 158.313 387.594C157.17 387.158 155.951 386.956 154.729 387Z" fill="#212734"/>
<g filter="url(#filter2_d_1_2048)">
<path d="M1182.27 275.42H339.725C331.449 275.42 323.512 272.13 317.66 266.274C311.808 260.418 308.52 252.475 308.52 244.193V88.0594C308.52 79.7775 311.808 71.8349 317.66 65.9787C323.512 60.1226 331.449 56.8326 339.725 56.8326H1182.27C1190.54 56.8326 1198.48 60.1226 1204.33 65.9787C1210.18 71.8349 1213.47 79.7775 1213.47 88.0594V244.193C1213.47 252.475 1210.18 260.418 1204.33 266.274C1198.48 272.13 1190.54 275.42 1182.27 275.42V275.42Z" fill="#212734"/>
</g>
<path d="M782.839 225.457H945.106C955.446 225.457 963.829 217.068 963.829 206.721C963.829 196.373 955.446 187.984 945.106 187.984H782.839C772.498 187.984 764.116 196.373 764.116 206.721C764.116 217.068 772.498 225.457 782.839 225.457Z" fill="url(#paint4_linear_1_2048)" fill-opacity="0.7"/>
<path d="M670.5 144.267H945.106C955.446 144.267 963.829 135.878 963.829 125.53C963.829 115.183 955.446 106.794 945.106 106.794H670.5C660.159 106.794 651.777 115.183 651.777 125.53C651.777 135.878 660.159 144.267 670.5 144.267Z" fill="#3F4354"/>
<path d="M1044.96 256.684H1163.54C1180.78 256.684 1194.75 242.703 1194.75 225.457V106.796C1194.75 89.5496 1180.78 75.5689 1163.54 75.5689H1044.96C1027.73 75.5689 1013.76 89.5496 1013.76 106.796V225.457C1013.76 242.703 1027.73 256.684 1044.96 256.684Z" fill="url(#paint5_linear_1_2048)"/>
<path d="M1118.47 145.642H1105.99L1105.85 150.451C1105.85 156.771 1101.87 158.42 1096.24 160.206C1090.59 161.813 1085.62 165.217 1082.08 169.902C1078.54 174.587 1076.62 180.299 1076.61 186.174C1076.48 189.761 1077.11 193.335 1078.43 196.669C1079.76 200.003 1081.77 203.025 1084.32 205.543C1086.88 208.062 1089.93 210.022 1093.28 211.3C1096.63 212.577 1100.21 213.145 1103.79 212.967C1107.58 213.049 1111.34 212.361 1114.85 210.945C1118.37 209.528 1121.55 207.413 1124.22 204.726C1126.9 202.04 1128.99 198.839 1130.39 195.317C1131.79 191.795 1132.45 188.026 1132.35 184.238H1119.45C1119.49 186.329 1119.13 188.41 1118.36 190.357C1117.6 192.304 1116.45 194.078 1114.99 195.577C1113.53 197.075 1111.79 198.267 1109.86 199.082C1107.94 199.898 1105.87 200.321 1103.78 200.326C1101.9 200.435 1100.01 200.137 1098.25 199.452C1096.49 198.767 1094.9 197.71 1093.58 196.355C1092.27 194.999 1091.26 193.376 1090.62 191.595C1089.99 189.815 1089.75 187.919 1089.91 186.037C1090 182.99 1091.05 180.05 1092.93 177.65C1094.81 175.251 1097.41 173.519 1100.35 172.709L1104.88 170.91C1109.32 169.841 1113.19 167.143 1115.73 163.352C1118.27 159.56 1119.3 154.951 1118.61 150.438L1118.47 145.642ZM1112.29 115.951C1111.07 115.908 1109.85 116.11 1108.71 116.546C1107.57 116.982 1106.52 117.643 1105.64 118.489C1104.76 119.336 1104.05 120.351 1103.57 121.475C1103.08 122.599 1102.83 123.808 1102.82 125.032C1102.83 126.255 1103.09 127.463 1103.57 128.585C1104.06 129.708 1104.76 130.721 1105.64 131.567C1106.53 132.412 1107.57 133.071 1108.71 133.507C1109.85 133.942 1111.07 134.144 1112.29 134.1C1113.51 134.144 1114.73 133.942 1115.87 133.507C1117.02 133.071 1118.06 132.412 1118.94 131.567C1119.83 130.721 1120.53 129.708 1121.02 128.585C1121.5 127.463 1121.76 126.255 1121.77 125.032C1121.76 123.808 1121.5 122.599 1121.02 121.475C1120.53 120.351 1119.83 119.336 1118.95 118.489C1118.06 117.643 1117.02 116.982 1115.88 116.546C1114.73 116.11 1113.52 115.908 1112.29 115.951Z" fill="#212734"/>
</g>
<defs>
<filter id="filter0_d_1_2048" x="271.048" y="575.821" width="979.895" height="293.532" filterUnits="userSpaceOnUse" color-interpolation-filters="sRGB">
<feFlood flood-opacity="0" result="BackgroundImageFix"/>
<feColorMatrix in="SourceAlpha" type="matrix" values="0 0 0 0 0 0 0 0 0 0 0 0 0 0 0 0 0 0 127 0" result="hardAlpha"/>
<feOffset dy="18.7361"/>
<feGaussianBlur stdDeviation="18.7361"/>
<feColorMatrix type="matrix" values="0 0 0 0 0 0 0 0 0 0 0 0 0 0 0 0 0 0 0.161 0"/>
<feBlend mode="normal" in2="BackgroundImageFix" result="effect1_dropShadow_1_2048"/>
<feBlend mode="normal" in="SourceGraphic" in2="effect1_dropShadow_1_2048" result="shape"/>
</filter>
<filter id="filter1_d_1_2048" x="-0.000434875" y="309.145" width="979.895" height="293.532" filterUnits="userSpaceOnUse" color-interpolation-filters="sRGB">
<feFlood flood-opacity="0" result="BackgroundImageFix"/>
<feColorMatrix in="SourceAlpha" type="matrix" values="0 0 0 0 0 0 0 0 0 0 0 0 0 0 0 0 0 0 127 0" result="hardAlpha"/>
<feOffset dy="18.7361"/>
<feGaussianBlur stdDeviation="18.7361"/>
<feColorMatrix type="matrix" values="0 0 0 0 0 0 0 0 0 0 0 0 0 0 0 0 0 0 0.161 0"/>
<feBlend mode="normal" in2="BackgroundImageFix" result="effect1_dropShadow_1_2048"/>
<feBlend mode="normal" in="SourceGraphic" in2="effect1_dropShadow_1_2048" result="shape"/>
</filter>
<filter id="filter2_d_1_2048" x="271.048" y="38.0965" width="979.895" height="293.532" filterUnits="userSpaceOnUse" color-interpolation-filters="sRGB">
<feFlood flood-opacity="0" result="BackgroundImageFix"/>
<feColorMatrix in="SourceAlpha" type="matrix" values="0 0 0 0 0 0 0 0 0 0 0 0 0 0 0 0 0 0 127 0" result="hardAlpha"/>
<feOffset dy="18.7361"/>
<feGaussianBlur stdDeviation="18.7361"/>
<feColorMatrix type="matrix" values="0 0 0 0 0 0 0 0 0 0 0 0 0 0 0 0 0 0 0.161 0"/>
<feBlend mode="normal" in2="BackgroundImageFix" result="effect1_dropShadow_1_2048"/>
<feBlend mode="normal" in="SourceGraphic" in2="effect1_dropShadow_1_2048" result="shape"/>
</filter>
<linearGradient id="paint0_linear_1_2048" x1="783.931" y1="756.745" x2="936.956" y2="715.118" gradientUnits="userSpaceOnUse">
<stop stop-color="#171C23" stop-opacity="0.58"/>
<stop offset="1" stop-color="#13161C"/>
</linearGradient>
<linearGradient id="paint1_linear_1_2048" x1="1217.18" y1="793.16" x2="1000.75" y2="780.984" gradientUnits="userSpaceOnUse">
<stop stop-color="#FF7000"/>
<stop offset="0.9999" stop-color="#E2985E"/>
<stop offset="1" stop-color="#E2995F"/>
</linearGradient>
<linearGradient id="paint2_linear_1_2048" x1="467.013" y1="490.068" x2="313.987" y2="448.442" gradientUnits="userSpaceOnUse">
<stop stop-color="#171C23" stop-opacity="0.58"/>
<stop offset="1" stop-color="#13161C"/>
</linearGradient>
<linearGradient id="paint3_linear_1_2048" x1="263.862" y1="527.732" x2="47.5808" y2="515.573" gradientUnits="userSpaceOnUse">
<stop stop-color="#FF7000"/>
<stop offset="0.9999" stop-color="#E2985E"/>
<stop offset="1" stop-color="#E2995F"/>
</linearGradient>
<linearGradient id="paint4_linear_1_2048" x1="783.931" y1="219.019" x2="936.956" y2="177.392" gradientUnits="userSpaceOnUse">
<stop stop-color="#171C23" stop-opacity="0.58"/>
<stop offset="1" stop-color="#13161C"/>
</linearGradient>
<linearGradient id="paint5_linear_1_2048" x1="1221.43" y1="256.684" x2="1005.15" y2="244.524" gradientUnits="userSpaceOnUse">
<stop stop-color="#FF7000"/>
<stop offset="0.9999" stop-color="#E2985E"/>
<stop offset="1" stop-color="#E2995F"/>
</linearGradient>
</defs>
</svg>
