<svg width="287" height="200" viewBox="0 0 287 200" fill="none" xmlns="http://www.w3.org/2000/svg">
<path d="M232.4 0H60.9713C53.0815 0 46.6855 6.39593 46.6855 14.2857V185.714C46.6855 193.604 53.0815 200 60.9713 200H232.4C240.29 200 246.686 193.604 246.686 185.714V14.2857C246.686 6.39593 240.29 0 232.4 0Z" fill="#F4F6F8"/>
<g filter="url(#filter0_d_1_10331)">
<path d="M208.433 14H15.7092C11.767 14 8.57129 17.198 8.57129 21.1429V56.8571C8.57129 60.802 11.767 64 15.7092 64H208.433C212.376 64 215.571 60.802 215.571 56.8571V21.1429C215.571 17.198 212.376 14 208.433 14Z" fill="white"/>
</g>
<path d="M107.075 25.4286H69.9576C67.5923 25.4286 65.6748 27.3474 65.6748 29.7143C65.6748 32.0812 67.5923 34 69.9576 34H107.075C109.44 34 111.358 32.0812 111.358 29.7143C111.358 27.3474 109.44 25.4286 107.075 25.4286Z" fill="#F4F6F8"/>
<path d="M132.771 44H69.9576C67.5923 44 65.6748 45.9188 65.6748 48.2857C65.6748 50.6526 67.5923 52.5714 69.9576 52.5714H132.771C135.137 52.5714 137.054 50.6526 137.054 48.2857C137.054 45.9188 135.137 44 132.771 44Z" fill="#DCE3F1"/>
<path d="M48.1143 18.5714H20.9715C17.0266 18.5714 13.8286 21.7694 13.8286 25.7143V52.8571C13.8286 56.802 17.0266 60 20.9715 60H48.1143C52.0592 60 55.2572 56.802 55.2572 52.8571V25.7143C55.2572 21.7694 52.0592 18.5714 48.1143 18.5714Z" fill="url(#paint0_linear_1_10331)"/>
<path d="M31.2889 43.9714H34.146L34.1774 42.8714C34.1774 41.4257 35.0889 41.0486 36.3774 40.64C37.67 40.2723 38.8077 39.4938 39.6186 38.4221C40.4294 37.3504 40.8693 36.0439 40.8717 34.7C40.9 33.8795 40.7577 33.0621 40.4537 32.2994C40.1497 31.5368 39.6908 30.8455 39.1058 30.2695C38.5209 29.6934 37.8227 29.245 37.0555 28.9527C36.2883 28.6604 35.4688 28.5306 34.6489 28.5714C33.7823 28.5525 32.9209 28.7099 32.117 29.0339C31.3131 29.3579 30.5834 29.8418 29.9721 30.4563C29.3608 31.0708 28.8807 31.803 28.5609 32.6086C28.2411 33.4142 28.0883 34.2764 28.1117 35.1429H31.066C31.0548 34.6645 31.1392 34.1886 31.3142 33.7433C31.4893 33.2979 31.7514 32.8919 32.0854 32.5492C32.4193 32.2065 32.8184 31.9338 33.259 31.7473C33.6997 31.5608 34.1732 31.4641 34.6517 31.4629C35.0833 31.4378 35.5151 31.506 35.918 31.6628C36.3208 31.8195 36.6852 32.0611 36.9863 32.3712C37.2875 32.6813 37.5184 33.0526 37.6632 33.4599C37.8081 33.8671 37.8636 34.3008 37.826 34.7314C37.807 35.4284 37.5646 36.1009 37.1346 36.6497C36.7046 37.1986 36.1096 37.5948 35.4374 37.78L34.4003 38.1914C33.3849 38.4361 32.4984 39.0531 31.9163 39.9204C31.3343 40.7877 31.0991 41.8419 31.2574 42.8743L31.2889 43.9714ZM32.7031 50.7629C32.9829 50.7728 33.2618 50.7265 33.5234 50.6268C33.785 50.5271 34.024 50.376 34.2261 50.1823C34.4283 49.9887 34.5896 49.7564 34.7005 49.4994C34.8114 49.2423 34.8696 48.9657 34.8717 48.6857C34.8692 48.406 34.8107 48.1296 34.6997 47.8729C34.5886 47.6162 34.4273 47.3843 34.2251 47.191C34.023 46.9976 33.7842 46.8467 33.5228 46.7472C33.2614 46.6477 32.9827 46.6015 32.7031 46.6114C32.4236 46.6015 32.1449 46.6477 31.8835 46.7472C31.6221 46.8467 31.3833 46.9976 31.1812 47.191C30.979 47.3843 30.8177 47.6162 30.7066 47.8729C30.5956 48.1296 30.5371 48.406 30.5346 48.6857C30.5367 48.9657 30.5949 49.2423 30.7058 49.4994C30.8167 49.7564 30.978 49.9887 31.1801 50.1823C31.3823 50.376 31.6213 50.5271 31.8828 50.6268C32.1444 50.7265 32.4234 50.7728 32.7031 50.7629Z" fill="white"/>
<g filter="url(#filter1_d_1_10331)">
<path d="M77.7092 75H270.433C272.326 75 274.142 75.7525 275.481 77.0921C276.819 78.4316 277.571 80.2485 277.571 82.1429V117.857C277.571 119.752 276.819 121.568 275.481 122.908C274.142 124.247 272.326 125 270.433 125H77.7092C75.8161 125 74.0006 124.247 72.6619 122.908C71.3233 121.568 70.5713 119.752 70.5713 117.857V82.1429C70.5713 80.2485 71.3233 78.4316 72.6619 77.0921C74.0006 75.7525 75.8161 75 77.7092 75V75Z" fill="white"/>
</g>
<path d="M169.075 86.4285H131.958C129.592 86.4285 127.675 88.3472 127.675 90.7142C127.675 93.0811 129.592 94.9999 131.958 94.9999H169.075C171.44 94.9999 173.358 93.0811 173.358 90.7142C173.358 88.3472 171.44 86.4285 169.075 86.4285Z" fill="#F4F6F8"/>
<path d="M194.771 105H131.958C129.592 105 127.675 106.919 127.675 109.286C127.675 111.653 129.592 113.571 131.958 113.571H194.771C197.137 113.571 199.054 111.653 199.054 109.286C199.054 106.919 197.137 105 194.771 105Z" fill="#DCE3F1"/>
<path d="M109.117 79.2856H81.9924C78.0503 79.2856 74.8545 82.4836 74.8545 86.4285V113.571C74.8545 117.516 78.0503 120.714 81.9924 120.714H109.117C113.059 120.714 116.254 117.516 116.254 113.571V86.4285C116.254 82.4836 113.059 79.2856 109.117 79.2856Z" fill="url(#paint1_linear_1_10331)"/>
<path d="M92.3023 104.686H95.1575L95.1889 103.586C95.1889 102.14 96.0997 101.763 97.3874 101.354C98.679 100.987 99.816 100.208 100.626 99.1363C101.437 98.0646 101.876 96.7581 101.879 95.4142C101.907 94.5937 101.765 93.7763 101.461 93.0137C101.157 92.251 100.698 91.5598 100.114 90.9837C99.5293 90.4076 98.8317 89.9593 98.065 89.667C97.2983 89.3747 96.4794 89.2448 95.66 89.2857C94.794 89.2668 93.9332 89.4241 93.1299 89.7481C92.3265 90.0721 91.5973 90.556 90.9864 91.1705C90.3755 91.785 89.8958 92.5173 89.5762 93.3229C89.2566 94.1285 89.1039 94.9906 89.1273 95.8571H92.0796C92.0684 95.3787 92.1527 94.9029 92.3276 94.4575C92.5026 94.0121 92.7646 93.6062 93.0983 93.2634C93.432 92.9207 93.8307 92.6481 94.2711 92.4615C94.7115 92.275 95.1846 92.1783 95.6628 92.1771C96.0941 92.1521 96.5256 92.2202 96.9282 92.377C97.3308 92.5337 97.6949 92.7754 97.9958 93.0855C98.2968 93.3955 98.5275 93.7668 98.6723 94.1741C98.8171 94.5814 98.8725 95.015 98.8349 95.4457C98.8159 96.1426 98.5737 96.8151 98.144 97.3639C97.7142 97.9128 97.1197 98.309 96.448 98.4942L95.4116 98.9057C94.3969 99.1503 93.511 99.7674 92.9293 100.635C92.3477 101.502 92.1127 102.556 92.2709 103.589L92.3023 104.686ZM93.7156 111.477C93.9952 111.487 94.2739 111.441 94.5353 111.341C94.7967 111.241 95.0355 111.09 95.2376 110.897C95.4396 110.703 95.6008 110.471 95.7116 110.214C95.8224 109.957 95.8806 109.68 95.8827 109.4C95.8802 109.12 95.8217 108.844 95.7107 108.587C95.5998 108.33 95.4385 108.099 95.2365 107.905C95.0345 107.712 94.7959 107.561 94.5347 107.461C94.2734 107.362 93.9949 107.316 93.7156 107.326C93.4363 107.316 93.1578 107.362 92.8965 107.461C92.6353 107.561 92.3967 107.712 92.1947 107.905C91.9927 108.099 91.8314 108.33 91.7204 108.587C91.6095 108.844 91.551 109.12 91.5485 109.4C91.5506 109.68 91.6088 109.957 91.7196 110.214C91.8304 110.471 91.9916 110.703 92.1936 110.897C92.3957 111.09 92.6345 111.241 92.8959 111.341C93.1573 111.441 93.436 111.487 93.7156 111.477Z" fill="white"/>
<g filter="url(#filter2_d_1_10331)">
<path d="M15.7092 137H208.433C210.326 137 212.142 137.753 213.481 139.092C214.819 140.432 215.571 142.248 215.571 144.143V179.857C215.571 181.752 214.819 183.568 213.481 184.908C212.142 186.247 210.326 187 208.433 187H15.7092C13.8161 187 12.0006 186.247 10.6619 184.908C9.32332 183.568 8.57129 181.752 8.57129 179.857V144.143C8.57129 142.248 9.32332 140.432 10.6619 139.092C12.0006 137.753 13.8161 137 15.7092 137V137Z" fill="white"/>
</g>
<path d="M107.075 148.429H69.9576C67.5923 148.429 65.6748 150.347 65.6748 152.714C65.6748 155.081 67.5923 157 69.9576 157H107.075C109.44 157 111.358 155.081 111.358 152.714C111.358 150.347 109.44 148.429 107.075 148.429Z" fill="#F4F6F8"/>
<path d="M132.771 167H69.9576C67.5923 167 65.6748 168.919 65.6748 171.286C65.6748 173.653 67.5923 175.571 69.9576 175.571H132.771C135.137 175.571 137.054 173.653 137.054 171.286C137.054 168.919 135.137 167 132.771 167Z" fill="#DCE3F1"/>
<path d="M47.1161 141.286H19.9919C16.0498 141.286 12.854 144.484 12.854 148.429V175.571C12.854 179.516 16.0498 182.714 19.9919 182.714H47.1161C51.0582 182.714 54.254 179.516 54.254 175.571V148.429C54.254 144.484 51.0582 141.286 47.1161 141.286Z" fill="url(#paint2_linear_1_10331)"/>
<path d="M30.3018 166.686H33.157L33.1884 165.586C33.1884 164.14 34.0992 163.763 35.3869 163.354C36.6786 162.987 37.8155 162.208 38.6258 161.136C39.4361 160.065 39.8756 158.758 39.878 157.414C39.9063 156.594 39.7641 155.776 39.4603 155.014C39.1566 154.251 38.6979 153.56 38.1134 152.984C37.5288 152.408 36.8312 151.959 36.0645 151.667C35.2978 151.375 34.4789 151.245 33.6595 151.286C32.7935 151.267 31.9328 151.424 31.1294 151.748C30.326 152.072 29.5968 152.556 28.9859 153.171C28.3751 153.785 27.8953 154.517 27.5757 155.323C27.2562 156.129 27.1034 156.991 27.1268 157.857H30.0791C30.0679 157.379 30.1522 156.903 30.3271 156.458C30.5021 156.012 30.7641 155.606 31.0978 155.264C31.4315 154.921 31.8302 154.648 32.2706 154.462C32.711 154.275 33.1841 154.178 33.6623 154.177C34.0936 154.152 34.5251 154.22 34.9277 154.377C35.3303 154.534 35.6944 154.775 35.9954 155.086C36.2963 155.396 36.527 155.767 36.6718 156.174C36.8166 156.581 36.872 157.015 36.8344 157.446C36.8154 158.143 36.5732 158.815 36.1435 159.364C35.7138 159.913 35.1192 160.309 34.4475 160.494L33.4111 160.906C32.3964 161.15 31.5105 161.768 30.9288 162.635C30.3472 163.502 30.1122 164.556 30.2704 165.589L30.3018 166.686ZM31.7151 173.477C31.9947 173.487 32.2734 173.441 32.5348 173.341C32.7963 173.241 33.035 173.09 33.2371 172.897C33.4391 172.703 33.6003 172.471 33.7111 172.214C33.8219 171.957 33.8801 171.68 33.8822 171.4C33.8797 171.12 33.8212 170.844 33.7103 170.587C33.5993 170.331 33.438 170.099 33.236 169.905C33.0341 169.712 32.7954 169.561 32.5342 169.462C32.273 169.362 31.9945 169.316 31.7151 169.326C31.4358 169.316 31.1573 169.362 30.896 169.462C30.6348 169.561 30.3962 169.712 30.1942 169.905C29.9922 170.099 29.8309 170.331 29.72 170.587C29.609 170.844 29.5505 171.12 29.548 171.4C29.5501 171.68 29.6083 171.957 29.7191 172.214C29.8299 172.471 29.9911 172.703 30.1932 172.897C30.3952 173.09 30.634 173.241 30.8954 173.341C31.1568 173.441 31.4355 173.487 31.7151 173.477Z" fill="white"/>
<defs>
<filter id="filter0_d_1_10331" x="-0.000139236" y="9.71429" width="224.143" height="67.1429" filterUnits="userSpaceOnUse" color-interpolation-filters="sRGB">
<feFlood flood-opacity="0" result="BackgroundImageFix"/>
<feColorMatrix in="SourceAlpha" type="matrix" values="0 0 0 0 0 0 0 0 0 0 0 0 0 0 0 0 0 0 127 0" result="hardAlpha"/>
<feOffset dy="4.28571"/>
<feGaussianBlur stdDeviation="4.28571"/>
<feColorMatrix type="matrix" values="0 0 0 0 0 0 0 0 0 0 0 0 0 0 0 0 0 0 0.161 0"/>
<feBlend mode="normal" in2="BackgroundImageFix" result="effect1_dropShadow_1_10331"/>
<feBlend mode="normal" in="SourceGraphic" in2="effect1_dropShadow_1_10331" result="shape"/>
</filter>
<filter id="filter1_d_1_10331" x="61.9999" y="70.7143" width="224.143" height="67.1429" filterUnits="userSpaceOnUse" color-interpolation-filters="sRGB">
<feFlood flood-opacity="0" result="BackgroundImageFix"/>
<feColorMatrix in="SourceAlpha" type="matrix" values="0 0 0 0 0 0 0 0 0 0 0 0 0 0 0 0 0 0 127 0" result="hardAlpha"/>
<feOffset dy="4.28571"/>
<feGaussianBlur stdDeviation="4.28571"/>
<feColorMatrix type="matrix" values="0 0 0 0 0 0 0 0 0 0 0 0 0 0 0 0 0 0 0.161 0"/>
<feBlend mode="normal" in2="BackgroundImageFix" result="effect1_dropShadow_1_10331"/>
<feBlend mode="normal" in="SourceGraphic" in2="effect1_dropShadow_1_10331" result="shape"/>
</filter>
<filter id="filter2_d_1_10331" x="-0.000139236" y="132.714" width="224.143" height="67.1429" filterUnits="userSpaceOnUse" color-interpolation-filters="sRGB">
<feFlood flood-opacity="0" result="BackgroundImageFix"/>
<feColorMatrix in="SourceAlpha" type="matrix" values="0 0 0 0 0 0 0 0 0 0 0 0 0 0 0 0 0 0 127 0" result="hardAlpha"/>
<feOffset dy="4.28571"/>
<feGaussianBlur stdDeviation="4.28571"/>
<feColorMatrix type="matrix" values="0 0 0 0 0 0 0 0 0 0 0 0 0 0 0 0 0 0 0.161 0"/>
<feBlend mode="normal" in2="BackgroundImageFix" result="effect1_dropShadow_1_10331"/>
<feBlend mode="normal" in="SourceGraphic" in2="effect1_dropShadow_1_10331" result="shape"/>
</filter>
<linearGradient id="paint0_linear_1_10331" x1="7.72209" y1="18.5714" x2="57.2286" y2="21.3567" gradientUnits="userSpaceOnUse">
<stop stop-color="#FF7000"/>
<stop offset="0.9999" stop-color="#E2985E"/>
<stop offset="1" stop-color="#E2995F"/>
</linearGradient>
<linearGradient id="paint1_linear_1_10331" x1="68.7522" y1="79.2857" x2="118.225" y2="82.0671" gradientUnits="userSpaceOnUse">
<stop stop-color="#FF7000"/>
<stop offset="0.9999" stop-color="#E2985E"/>
<stop offset="1" stop-color="#E2995F"/>
</linearGradient>
<linearGradient id="paint2_linear_1_10331" x1="6.75169" y1="141.286" x2="56.2243" y2="144.067" gradientUnits="userSpaceOnUse">
<stop stop-color="#FF7000"/>
<stop offset="0.9999" stop-color="#E2985E"/>
<stop offset="1" stop-color="#E2995F"/>
</linearGradient>
</defs>
</svg>
