<svg width="32" height="32" viewBox="0 0 32 32" fill="none" xmlns="http://www.w3.org/2000/svg">
<path d="M14.2388 0C12.7364 2.15616 14.2286 7.85675 14.5552 10.4416L15.8209 10.1252C15.4689 7.33992 15.7985 2.28295 14.2388 0Z" fill="#FF7000"/>
<path d="M18.3526 0.316528L16.1377 10.1253L17.4033 10.4417L19.3018 0.632941L18.3526 0.316528Z" fill="#FF7000"/>
<path d="M9.17592 1.58192L12.6565 10.7579L6.64462 3.48039L5.37897 3.79681L11.3908 12.0235L2.84766 6.64452L2.53125 7.91017L11.0744 13.2892L12.6565 10.7579L14.2385 10.4415L10.4416 1.2655L9.17592 1.58192Z" fill="#FF7000"/>
<path d="M22.4659 1.58203L17.7197 10.758C19.9271 11.0921 23.9619 3.29 22.4659 1.58203Z" fill="#FF7000"/>
<path d="M19.3018 12.0235C22.1481 11.4234 25.5818 7.06032 27.2121 4.74598C24.557 4.52354 19.9838 9.59361 19.3018 12.0235Z" fill="#FF7000"/>
<path d="M0.949225 10.7579L0.632812 11.7072C3.30884 13.1116 7.41933 14.4168 10.4416 14.5549C9.62248 12.1993 3.24157 11.2324 0.949225 10.7579Z" fill="#FF7000"/>
<path d="M0 15.188V16.4536H10.1252V15.188H0Z" fill="#FF7000"/>
<path d="M21.1992 16.4534L31.3244 16.137V15.5042C29.3155 14.9104 21.9548 14.1768 21.1992 16.4534Z" fill="#FF7000"/>
<path d="M20.8838 17.0865C21.705 19.4466 28.0866 20.4097 30.3762 20.8835L30.6926 20.5671V19.9343C27.9993 18.5207 23.9254 17.2192 20.8838 17.0865Z" fill="#FF7000"/>
<path d="M20.5664 18.3521L19.9336 19.6177L28.4767 24.9967L28.7932 23.7311L20.5664 18.3521Z" fill="#FF7000"/>
<path d="M4.42969 26.8951L4.7461 27.2115L12.34 20.5668C10.3012 18.6933 5.27948 25.0728 4.42969 26.8951Z" fill="#FF7000"/>
<path d="M20.8833 30.3757H22.1489L18.6684 20.5669H18.9848C20.2824 23.0817 23.0503 26.9328 25.6294 28.1608L25.9459 27.8444C24.9225 25.5482 22.4579 22.258 20.4753 20.6811C19.6299 20.0088 18.0292 20.1606 17.6268 21.3232C16.9124 23.3878 20.2989 28.2402 20.8833 30.3757Z" fill="#FF7000"/>
<path d="M12.3395 20.5669C11.4553 22.6908 7.12754 28.1912 8.85898 30.0593L13.6052 20.8833L12.3395 20.5669Z" fill="#FF7000"/>
<path d="M13.9219 21.1996L12.3398 31.3248C15.2464 30.4746 13.6353 23.7527 15.8204 21.8324C15.8204 23.8575 15.5273 30.6837 17.7189 31.3248C17.7175 29.288 18.1304 23.315 16.7608 21.778C16.2057 21.155 14.6921 21.2832 13.9219 21.1996Z" fill="#FF7000"/>
</svg>
