<svg width="16" height="16" viewBox="0 0 16 16" fill="none" xmlns="http://www.w3.org/2000/svg">
<path d="M15.4698 7.83C14.8817 6.30882 13.8608 4.99331 12.5332 4.04604C11.2056 3.09878 9.62953 2.56129 7.99979 2.5C6.37005 2.56129 4.79398 3.09878 3.46639 4.04604C2.1388 4.99331 1.11787 6.30882 0.529787 7.83C0.490071 7.93985 0.490071 8.06015 0.529787 8.17C1.11787 9.69118 2.1388 11.0067 3.46639 11.954C4.79398 12.9012 6.37005 13.4387 7.99979 13.5C9.62953 13.4387 11.2056 12.9012 12.5332 11.954C13.8608 11.0067 14.8817 9.69118 15.4698 8.17C15.5095 8.06015 15.5095 7.93985 15.4698 7.83ZM7.99979 12.5C5.34979 12.5 2.54979 10.535 1.53479 8C2.54979 5.465 5.34979 3.5 7.99979 3.5C10.6498 3.5 13.4498 5.465 14.4648 8C13.4498 10.535 10.6498 12.5 7.99979 12.5Z" fill="#1DA1F2"/>
<path d="M8 5C7.40666 5 6.82664 5.17595 6.33329 5.50559C5.83994 5.83524 5.45543 6.30377 5.22836 6.85195C5.0013 7.40013 4.94189 8.00333 5.05765 8.58527C5.1734 9.16721 5.45912 9.70176 5.87868 10.1213C6.29824 10.5409 6.83279 10.8266 7.41473 10.9424C7.99667 11.0581 8.59987 10.9987 9.14805 10.7716C9.69623 10.5446 10.1648 10.1601 10.4944 9.66671C10.8241 9.17336 11 8.59334 11 8C11 7.20435 10.6839 6.44129 10.1213 5.87868C9.55871 5.31607 8.79565 5 8 5ZM8 10C7.60444 10 7.21776 9.8827 6.88886 9.66294C6.55996 9.44318 6.30362 9.13082 6.15224 8.76537C6.00087 8.39991 5.96126 7.99778 6.03843 7.60982C6.1156 7.22186 6.30608 6.86549 6.58579 6.58579C6.86549 6.30608 7.22186 6.1156 7.60982 6.03843C7.99778 5.96126 8.39992 6.00087 8.76537 6.15224C9.13082 6.30362 9.44318 6.55996 9.66294 6.88886C9.8827 7.21776 10 7.60444 10 8C10 8.53043 9.78929 9.03914 9.41421 9.41421C9.03914 9.78929 8.53043 10 8 10Z" fill="#1DA1F2"/>
</svg>
