<svg width="16" height="16" viewBox="0 0 16 16" fill="none" xmlns="http://www.w3.org/2000/svg">
<path d="M10 6.66667L9.34267 6.55733C9.3268 6.6528 9.3319 6.75057 9.35762 6.84386C9.38334 6.93715 9.42907 7.02373 9.49161 7.09757C9.55416 7.17141 9.63204 7.23075 9.71983 7.27146C9.80762 7.31218 9.90323 7.33329 10 7.33333V6.66667ZM2.66667 6.66667V6C2.48986 6 2.32029 6.07024 2.19526 6.19526C2.07024 6.32029 2 6.48986 2 6.66667H2.66667ZM4 14H11.5733V12.6667H4V14ZM12.3733 6H10V7.33333H12.3733V6ZM10.658 6.776L11.1947 3.55267L9.88 3.33333L9.34267 6.55733L10.658 6.776ZM9.88 2H9.73733V3.33333H9.88V2ZM7.518 3.18733L5.84133 5.70333L6.95067 6.44333L8.628 3.92733L7.518 3.18733ZM5.28667 6H2.66667V7.33333H5.28667V6ZM2 6.66667V12H3.33333V6.66667H2ZM13.5347 12.392L14.3347 8.392L13.028 8.13067L12.228 12.1307L13.5347 12.392ZM5.84133 5.70333C5.78043 5.79461 5.69795 5.86945 5.60119 5.9212C5.50443 5.97295 5.39639 6.00002 5.28667 6V7.33333C5.61591 7.33331 5.94006 7.252 6.23034 7.09663C6.52061 6.94126 6.76805 6.71662 6.95067 6.44267L5.84133 5.70267V5.70333ZM11.1947 3.55267C11.2265 3.36169 11.2164 3.16607 11.165 2.97941C11.1136 2.79274 11.0222 2.6195 10.8971 2.47174C10.772 2.32398 10.6162 2.20524 10.4405 2.12378C10.2649 2.04231 10.0736 2.00007 9.88 2V3.33333L11.1947 3.55267ZM12.3733 7.33333C12.472 7.33329 12.5694 7.35515 12.6586 7.39732C12.7478 7.43949 12.8265 7.50093 12.889 7.57721C12.9516 7.65348 12.9965 7.74269 13.0204 7.8384C13.0443 7.93411 13.0473 8.03393 13.028 8.13067L14.3347 8.392C14.3927 8.1019 14.3856 7.80255 14.3139 7.51552C14.2422 7.22849 14.1078 6.96094 13.9202 6.73214C13.7327 6.50334 13.4967 6.319 13.2294 6.19239C12.962 6.06579 12.6698 6.00008 12.374 6V7.33333H12.3733ZM11.5733 14C12.0357 14 12.4839 13.8398 12.8415 13.5466C13.1991 13.2535 13.444 12.8454 13.5347 12.392L12.228 12.1307C12.1978 12.282 12.116 12.4181 11.9966 12.5158C11.8772 12.6136 11.7276 12.6669 11.5733 12.6667V14ZM9.73733 2C9.29825 1.9999 8.86593 2.10822 8.47877 2.31535C8.09161 2.52248 7.76158 2.82201 7.518 3.18733L8.628 3.92733C8.74972 3.74465 8.91466 3.59486 9.10819 3.49123C9.30171 3.38761 9.51782 3.33337 9.73733 3.33333V2ZM4 12.6667C3.82319 12.6667 3.65362 12.5964 3.5286 12.4714C3.40357 12.3464 3.33333 12.1768 3.33333 12H2C2 12.5304 2.21071 13.0391 2.58579 13.4142C2.96086 13.7893 3.46957 14 4 14V12.6667Z" fill="#1DA1F2"/>
<path d="M5.33301 6.66675V13.3334" stroke="#1DA1F2"/>
</svg>
