<svg width="16" height="16" viewBox="0 0 16 16" fill="none" xmlns="http://www.w3.org/2000/svg">
<path d="M8.25 12.5C9.09057 12.5 9.91226 12.2507 10.6112 11.7837C11.3101 11.3168 11.8548 10.653 12.1765 9.87641C12.4982 9.09982 12.5823 8.24529 12.4183 7.42087C12.2543 6.59645 11.8496 5.83917 11.2552 5.2448C10.6608 4.65042 9.90355 4.24565 9.07913 4.08166C8.25471 3.91768 7.40018 4.00184 6.6236 4.32351C5.84701 4.64519 5.18325 5.18992 4.71625 5.88883C4.24926 6.58774 4 7.40943 4 8.25C4 8.95267 4.17 9.6152 4.47222 10.1989L4 12.5L6.30114 12.0278C6.88481 12.33 7.54781 12.5 8.25 12.5Z" stroke="#1DA1F2" stroke-linecap="round" stroke-linejoin="round"/>
</svg>
